<mxfile host="app.diagrams.net" modified="2023-08-17T14:45:54.704Z" agent="Mozilla/5.0 (Windows NT 10.0; Win64; x64) AppleWebKit/537.36 (KHTML, like Gecko) Chrome/115.0.0.0 Safari/537.36 Edg/115.0.1901.203" etag="fH4BGMOGBppt-QVouqIO" version="21.6.8" type="onedrive">
  <diagram name="Page-1" id="IBdIkPV9pn2-8v3MIylM">
    <mxGraphModel grid="1" page="1" gridSize="10" guides="1" tooltips="1" connect="1" arrows="1" fold="1" pageScale="1" pageWidth="827" pageHeight="1169" math="0" shadow="0">
      <root>
        <mxCell id="0" />
        <mxCell id="1" parent="0" />
        <mxCell id="PrfPCNccRRWCTI0NGbYJ-4" value="" style="fontColor=#0066CC;verticalAlign=top;verticalLabelPosition=bottom;labelPosition=center;align=center;html=1;outlineConnect=0;fillColor=#CCCCCC;strokeColor=#6881B3;gradientColor=none;gradientDirection=north;strokeWidth=2;shape=mxgraph.networks.nas_filer;" vertex="1" parent="1">
          <mxGeometry x="440" y="172.5" width="100" height="35" as="geometry" />
        </mxCell>
        <mxCell id="PrfPCNccRRWCTI0NGbYJ-7" value="" style="endArrow=open;endFill=1;endSize=12;html=1;rounded=0;entryX=0;entryY=1;entryDx=0;entryDy=0;entryPerimeter=0;" edge="1" parent="1" target="PrfPCNccRRWCTI0NGbYJ-4">
          <mxGeometry width="160" relative="1" as="geometry">
            <mxPoint x="140" y="400" as="sourcePoint" />
            <mxPoint x="430" y="200" as="targetPoint" />
          </mxGeometry>
        </mxCell>
        <mxCell id="PrfPCNccRRWCTI0NGbYJ-9" value="Internet Service Provider" style="fillColor=none;strokeColor=none;html=1;fontSize=11;fontStyle=0;align=left;fontColor=#596780;fontStyle=1;fontSize=11" vertex="1" parent="1">
          <mxGeometry x="20" y="40" width="240" height="20" as="geometry" />
        </mxCell>
        <mxCell id="PrfPCNccRRWCTI0NGbYJ-10" value="Viewqwest" style="rounded=1;arcSize=9;fillColor=#F7F8F9;align=left;spacingLeft=5;strokeColor=#DEE1E6;html=1;strokeWidth=2;fontColor=#596780;fontSize=12" vertex="1" parent="1">
          <mxGeometry x="20" y="65" width="290" height="35" as="geometry" />
        </mxCell>
        <mxCell id="PrfPCNccRRWCTI0NGbYJ-11" value="" style="endArrow=open;endFill=1;endSize=12;html=1;rounded=0;exitX=1;exitY=0.5;exitDx=0;exitDy=0;exitPerimeter=0;" edge="1" parent="1" source="PrfPCNccRRWCTI0NGbYJ-45" target="PrfPCNccRRWCTI0NGbYJ-12">
          <mxGeometry width="160" relative="1" as="geometry">
            <mxPoint x="138" y="465" as="sourcePoint" />
            <mxPoint x="390" y="370" as="targetPoint" />
          </mxGeometry>
        </mxCell>
        <mxCell id="PrfPCNccRRWCTI0NGbYJ-12" value="" style="image;points=[];aspect=fixed;html=1;align=center;shadow=0;dashed=0;image=img/lib/allied_telesis/wireless/Access_Point_Indoor.svg;" vertex="1" parent="1">
          <mxGeometry x="450" y="405.33000000000004" width="80" height="119.34" as="geometry" />
        </mxCell>
        <mxCell id="PrfPCNccRRWCTI0NGbYJ-13" value="&lt;div style=&quot;text-align: left;&quot;&gt;Unifi U6 Pro Access Point&lt;/div&gt;&lt;div style=&quot;text-align: left;&quot;&gt;&lt;span style=&quot;background-color: initial;&quot;&gt;Internal IP: 192.168.1.24&lt;/span&gt;&lt;/div&gt;&lt;div style=&quot;text-align: left;&quot;&gt;&lt;span style=&quot;background-color: initial;&quot;&gt;Connection: POE ethernet&lt;/span&gt;&lt;/div&gt;&lt;div style=&quot;text-align: left;&quot;&gt;&lt;span style=&quot;background-color: initial;&quot;&gt;MAC Address: 17:c7:09&lt;/span&gt;&lt;/div&gt;" style="shape=callout;whiteSpace=wrap;html=1;perimeter=calloutPerimeter;" vertex="1" parent="1">
          <mxGeometry x="423" y="310" width="156" height="110" as="geometry" />
        </mxCell>
        <mxCell id="PrfPCNccRRWCTI0NGbYJ-16" value="" style="endArrow=open;endFill=1;endSize=12;html=1;rounded=0;exitX=0.992;exitY=1;exitDx=0;exitDy=0;exitPerimeter=0;" edge="1" parent="1" source="PrfPCNccRRWCTI0NGbYJ-45" target="PrfPCNccRRWCTI0NGbYJ-17">
          <mxGeometry width="160" relative="1" as="geometry">
            <mxPoint x="138" y="529" as="sourcePoint" />
            <mxPoint x="420" y="700" as="targetPoint" />
          </mxGeometry>
        </mxCell>
        <mxCell id="PrfPCNccRRWCTI0NGbYJ-17" value="desktop" style="sketch=0;outlineConnect=0;gradientColor=none;fontColor=#545B64;strokeColor=none;fillColor=#879196;dashed=0;verticalLabelPosition=bottom;verticalAlign=top;align=center;html=1;fontSize=12;fontStyle=0;aspect=fixed;shape=mxgraph.aws4.illustration_desktop;pointerEvents=1" vertex="1" parent="1">
          <mxGeometry x="440" y="680" width="100" height="91" as="geometry" />
        </mxCell>
        <mxCell id="PrfPCNccRRWCTI0NGbYJ-18" value="&lt;div style=&quot;text-align: left;&quot;&gt;Desktop Computer&lt;/div&gt;&lt;div style=&quot;text-align: left;&quot;&gt;&lt;span style=&quot;background-color: initial;&quot;&gt;Internal IP: 192.168.1.194&lt;/span&gt;&lt;/div&gt;&lt;div style=&quot;text-align: left;&quot;&gt;&lt;span style=&quot;background-color: initial;&quot;&gt;Connection: ethernet&lt;/span&gt;&lt;/div&gt;&lt;div style=&quot;text-align: left;&quot;&gt;&lt;span style=&quot;background-color: initial;&quot;&gt;MAC Address: f3:c0:13&lt;/span&gt;&lt;/div&gt;&lt;div style=&quot;text-align: left;&quot;&gt;&lt;span style=&quot;background-color: initial;&quot;&gt;OS Version: Windows 11 Pro&lt;/span&gt;&lt;/div&gt;" style="shape=callout;whiteSpace=wrap;html=1;perimeter=calloutPerimeter;" vertex="1" parent="1">
          <mxGeometry x="393.5" y="560" width="193" height="120" as="geometry" />
        </mxCell>
        <mxCell id="PrfPCNccRRWCTI0NGbYJ-19" value="" style="endArrow=open;endFill=1;endSize=12;html=1;rounded=0;exitX=1;exitY=0.534;exitDx=0;exitDy=0;exitPerimeter=0;entryX=0.025;entryY=0.441;entryDx=0;entryDy=0;entryPerimeter=0;" edge="1" parent="1" source="PrfPCNccRRWCTI0NGbYJ-12" target="PrfPCNccRRWCTI0NGbYJ-21">
          <mxGeometry width="160" relative="1" as="geometry">
            <mxPoint x="520" y="465" as="sourcePoint" />
            <mxPoint x="870" y="469.88340948453606" as="targetPoint" />
          </mxGeometry>
        </mxCell>
        <mxCell id="PrfPCNccRRWCTI0NGbYJ-21" value="" style="image;points=[];aspect=fixed;html=1;align=center;shadow=0;dashed=0;image=img/lib/allied_telesis/wireless/Access_Point_Indoor.svg;" vertex="1" parent="1">
          <mxGeometry x="770" y="415.33000000000004" width="80" height="119.34" as="geometry" />
        </mxCell>
        <mxCell id="PrfPCNccRRWCTI0NGbYJ-25" value="&lt;div style=&quot;text-align: left;&quot;&gt;&lt;span style=&quot;background-color: initial;&quot;&gt;Unifi U6 Pro Access Point&lt;/span&gt;&lt;/div&gt;&lt;div style=&quot;text-align: left;&quot;&gt;&lt;span style=&quot;background-color: initial;&quot;&gt;Internal IP: 192.168.1.202&lt;/span&gt;&lt;/div&gt;&lt;div style=&quot;text-align: left;&quot;&gt;&lt;span style=&quot;background-color: initial;&quot;&gt;Connection: WiFi Mesh&lt;/span&gt;&lt;/div&gt;&lt;div style=&quot;text-align: left;&quot;&gt;&lt;span style=&quot;background-color: initial;&quot;&gt;MAC Address:&amp;nbsp;&lt;/span&gt;&lt;span style=&quot;background-color: initial;&quot;&gt;17:c2:f9&lt;/span&gt;&lt;/div&gt;" style="shape=callout;whiteSpace=wrap;html=1;perimeter=calloutPerimeter;" vertex="1" parent="1">
          <mxGeometry x="740" y="320" width="160" height="110" as="geometry" />
        </mxCell>
        <mxCell id="PrfPCNccRRWCTI0NGbYJ-27" value="" style="endArrow=open;endFill=1;endSize=12;html=1;rounded=0;exitX=1.025;exitY=0.215;exitDx=0;exitDy=0;exitPerimeter=0;entryX=0;entryY=0.5;entryDx=0;entryDy=0;" edge="1" parent="1" source="PrfPCNccRRWCTI0NGbYJ-21" target="PrfPCNccRRWCTI0NGbYJ-34">
          <mxGeometry width="160" relative="1" as="geometry">
            <mxPoint x="850" y="441" as="sourcePoint" />
            <mxPoint x="1170" y="240" as="targetPoint" />
          </mxGeometry>
        </mxCell>
        <mxCell id="PrfPCNccRRWCTI0NGbYJ-28" value="" style="endArrow=open;endFill=1;endSize=12;html=1;rounded=0;exitX=1.013;exitY=0.475;exitDx=0;exitDy=0;exitPerimeter=0;" edge="1" parent="1" source="PrfPCNccRRWCTI0NGbYJ-21" target="PrfPCNccRRWCTI0NGbYJ-32">
          <mxGeometry width="160" relative="1" as="geometry">
            <mxPoint x="850" y="461" as="sourcePoint" />
            <mxPoint x="1170" y="440" as="targetPoint" />
          </mxGeometry>
        </mxCell>
        <mxCell id="PrfPCNccRRWCTI0NGbYJ-29" value="" style="endArrow=open;endFill=1;endSize=12;html=1;rounded=0;exitX=1;exitY=0.751;exitDx=0;exitDy=0;exitPerimeter=0;entryX=0;entryY=0.5;entryDx=0;entryDy=0;" edge="1" parent="1" source="PrfPCNccRRWCTI0NGbYJ-21" target="PrfPCNccRRWCTI0NGbYJ-35">
          <mxGeometry width="160" relative="1" as="geometry">
            <mxPoint x="850" y="499" as="sourcePoint" />
            <mxPoint x="1160" y="704" as="targetPoint" />
          </mxGeometry>
        </mxCell>
        <mxCell id="PrfPCNccRRWCTI0NGbYJ-30" value="" style="endArrow=open;endFill=1;endSize=12;html=1;rounded=0;exitX=0.825;exitY=1.02;exitDx=0;exitDy=0;exitPerimeter=0;entryX=0;entryY=0.5;entryDx=0;entryDy=0;" edge="1" parent="1" source="PrfPCNccRRWCTI0NGbYJ-21" target="PrfPCNccRRWCTI0NGbYJ-36">
          <mxGeometry width="160" relative="1" as="geometry">
            <mxPoint x="870" y="601" as="sourcePoint" />
            <mxPoint x="1100" y="990" as="targetPoint" />
          </mxGeometry>
        </mxCell>
        <mxCell id="PrfPCNccRRWCTI0NGbYJ-32" value="" style="verticalLabelPosition=bottom;sketch=0;aspect=fixed;html=1;verticalAlign=top;strokeColor=none;align=center;outlineConnect=0;shape=mxgraph.citrix.tablet_2;" vertex="1" parent="1">
          <mxGeometry x="1173" y="438.6700000000001" width="82" height="86" as="geometry" />
        </mxCell>
        <mxCell id="PrfPCNccRRWCTI0NGbYJ-33" value="&lt;div style=&quot;text-align: left;&quot;&gt;Samsung Galaxy Tab A7&lt;/div&gt;&lt;div style=&quot;text-align: left;&quot;&gt;&lt;span style=&quot;background-color: initial;&quot;&gt;Internal IP: 192.168.1.247&lt;/span&gt;&lt;/div&gt;&lt;div style=&quot;text-align: left;&quot;&gt;&lt;span style=&quot;background-color: initial;&quot;&gt;Connection: WiFi&lt;/span&gt;&lt;/div&gt;&lt;div style=&quot;text-align: left;&quot;&gt;&lt;span style=&quot;background-color: initial;&quot;&gt;MAC Address: 8f:cf:2b&lt;/span&gt;&lt;/div&gt;&lt;div style=&quot;text-align: left;&quot;&gt;&lt;span style=&quot;background-color: initial;&quot;&gt;OS Version: Android 12&lt;/span&gt;&lt;/div&gt;" style="shape=callout;whiteSpace=wrap;html=1;perimeter=calloutPerimeter;" vertex="1" parent="1">
          <mxGeometry x="1150" y="300" width="170" height="120" as="geometry" />
        </mxCell>
        <mxCell id="PrfPCNccRRWCTI0NGbYJ-34" value="" style="shape=image;html=1;verticalAlign=top;verticalLabelPosition=bottom;labelBackgroundColor=#ffffff;imageAspect=0;aspect=fixed;image=https://cdn3.iconfinder.com/data/icons/ui-interface-line/32/handphone_website_app_mobile_ui_web_interface_1-128.png" vertex="1" parent="1">
          <mxGeometry x="1150" y="126" width="128" height="128" as="geometry" />
        </mxCell>
        <mxCell id="PrfPCNccRRWCTI0NGbYJ-35" value="" style="shape=image;html=1;verticalAlign=top;verticalLabelPosition=bottom;labelBackgroundColor=#ffffff;imageAspect=0;aspect=fixed;image=https://cdn3.iconfinder.com/data/icons/ui-interface-line/32/handphone_website_app_mobile_ui_web_interface_1-128.png" vertex="1" parent="1">
          <mxGeometry x="1150" y="670" width="128" height="128" as="geometry" />
        </mxCell>
        <mxCell id="PrfPCNccRRWCTI0NGbYJ-36" value="" style="shape=image;html=1;verticalAlign=top;verticalLabelPosition=bottom;labelBackgroundColor=#ffffff;imageAspect=0;aspect=fixed;image=https://cdn3.iconfinder.com/data/icons/ui-interface-line/32/handphone_website_app_mobile_ui_web_interface_1-128.png" vertex="1" parent="1">
          <mxGeometry x="1150" y="920" width="128" height="128" as="geometry" />
        </mxCell>
        <mxCell id="PrfPCNccRRWCTI0NGbYJ-37" value="&lt;div style=&quot;text-align: left;&quot;&gt;Samsung Galaxy A70&lt;/div&gt;&lt;div style=&quot;text-align: left;&quot;&gt;&lt;span style=&quot;background-color: initial;&quot;&gt;Internal IP: 192.168.1.213&lt;/span&gt;&lt;/div&gt;&lt;div style=&quot;text-align: left;&quot;&gt;&lt;span style=&quot;background-color: initial;&quot;&gt;Connection: WiFi&lt;/span&gt;&lt;/div&gt;&lt;div style=&quot;text-align: left;&quot;&gt;&lt;span style=&quot;background-color: initial;&quot;&gt;MAC Address: 48:6a:d1&lt;/span&gt;&lt;/div&gt;&lt;div style=&quot;text-align: left;&quot;&gt;&lt;span style=&quot;background-color: initial;&quot;&gt;OS Version: Android 12&lt;/span&gt;&lt;/div&gt;" style="shape=callout;whiteSpace=wrap;html=1;perimeter=calloutPerimeter;" vertex="1" parent="1">
          <mxGeometry x="1134" y="560" width="166" height="115" as="geometry" />
        </mxCell>
        <mxCell id="PrfPCNccRRWCTI0NGbYJ-38" value="&lt;div style=&quot;text-align: left;&quot;&gt;Huawei P30 Pro&lt;/div&gt;&lt;div style=&quot;text-align: left;&quot;&gt;&lt;span style=&quot;background-color: initial;&quot;&gt;Internal IP: 192.168.1.232&lt;/span&gt;&lt;/div&gt;&lt;div style=&quot;text-align: left;&quot;&gt;&lt;span style=&quot;background-color: initial;&quot;&gt;Connection: WiFi&lt;/span&gt;&lt;/div&gt;&lt;div style=&quot;text-align: left;&quot;&gt;&lt;span style=&quot;background-color: initial;&quot;&gt;MAC Address: 69:78:66&lt;/span&gt;&lt;/div&gt;&lt;div style=&quot;text-align: left;&quot;&gt;&lt;span style=&quot;background-color: initial;&quot;&gt;OS Version: Android 12&lt;/span&gt;&lt;/div&gt;" style="shape=callout;whiteSpace=wrap;html=1;perimeter=calloutPerimeter;" vertex="1" parent="1">
          <mxGeometry x="1134" y="810" width="166" height="120" as="geometry" />
        </mxCell>
        <mxCell id="PrfPCNccRRWCTI0NGbYJ-39" value="&lt;div style=&quot;text-align: left;&quot;&gt;Xiaomi Mi 10T Pro&lt;/div&gt;&lt;div style=&quot;text-align: left;&quot;&gt;&lt;span style=&quot;background-color: initial;&quot;&gt;Internal IP: 192.168.1.128&lt;/span&gt;&lt;/div&gt;&lt;div style=&quot;text-align: left;&quot;&gt;&lt;span style=&quot;background-color: initial;&quot;&gt;Connection: WiFi&lt;/span&gt;&lt;/div&gt;&lt;div style=&quot;text-align: left;&quot;&gt;&lt;span style=&quot;background-color: initial;&quot;&gt;MAC Address: aa:af:52&lt;br&gt;OS Version: Android 13&lt;/span&gt;&lt;/div&gt;" style="shape=callout;whiteSpace=wrap;html=1;perimeter=calloutPerimeter;" vertex="1" parent="1">
          <mxGeometry x="1134" y="20" width="166" height="117.5" as="geometry" />
        </mxCell>
        <mxCell id="PrfPCNccRRWCTI0NGbYJ-41" value="DNS: 192.168.1.1&lt;br&gt;DHCP: 192.168.1.1" style="rounded=1;arcSize=9;fillColor=#F7F8F9;align=left;spacingLeft=5;strokeColor=#DEE1E6;html=1;strokeWidth=2;fontColor=#596780;fontSize=12" vertex="1" parent="1">
          <mxGeometry x="20" y="137.5" width="290" height="62.5" as="geometry" />
        </mxCell>
        <mxCell id="PrfPCNccRRWCTI0NGbYJ-42" value="DNS and DHCP addresses" style="fillColor=none;strokeColor=none;html=1;fontSize=11;fontStyle=0;align=left;fontColor=#596780;fontStyle=1;fontSize=11" vertex="1" parent="1">
          <mxGeometry x="20" y="110" width="240" height="20" as="geometry" />
        </mxCell>
        <mxCell id="PrfPCNccRRWCTI0NGbYJ-44" value="&lt;div style=&quot;text-align: left;&quot;&gt;Synology NAS DS920+&lt;/div&gt;&lt;div style=&quot;text-align: left;&quot;&gt;&lt;span style=&quot;background-color: initial;&quot;&gt;Internal IP: 192.168.1.2&lt;/span&gt;&lt;/div&gt;&lt;div style=&quot;text-align: left;&quot;&gt;&lt;span style=&quot;background-color: initial;&quot;&gt;Connection: ethernet&lt;/span&gt;&lt;/div&gt;&lt;div style=&quot;text-align: left;&quot;&gt;&lt;span style=&quot;background-color: initial;&quot;&gt;MAC Address: 03:44:0c&lt;br&gt;OS Version: Diskstation Manager 7.2 (Linux Distro)&lt;/span&gt;&lt;/div&gt;" style="shape=callout;whiteSpace=wrap;html=1;perimeter=calloutPerimeter;" vertex="1" parent="1">
          <mxGeometry x="341.75" y="40" width="296.5" height="132.5" as="geometry" />
        </mxCell>
        <mxCell id="PrfPCNccRRWCTI0NGbYJ-45" value="" style="sketch=0;points=[[0.5,0,0],[1,0.5,0],[0.5,1,0],[0,0.5,0],[0.145,0.145,0],[0.8555,0.145,0],[0.855,0.8555,0],[0.145,0.855,0]];verticalLabelPosition=bottom;html=1;verticalAlign=top;aspect=fixed;align=center;pointerEvents=1;shape=mxgraph.cisco19.rect;prIcon=router_with_firewall;fillColor=#FAFAFA;strokeColor=#005073;" vertex="1" parent="1">
          <mxGeometry x="10" y="400" width="130" height="130" as="geometry" />
        </mxCell>
        <mxCell id="PrfPCNccRRWCTI0NGbYJ-46" value="Unifi Dream Machine SE (Router)&lt;br&gt;Internal IP: 192.168.1.1&lt;br&gt;Connection: ethernet&lt;br&gt;MAC Address:&amp;nbsp;1e:3c:09&lt;br&gt;OS Version: Unifi OS 3.1 (Linux Distro)" style="shape=callout;whiteSpace=wrap;html=1;perimeter=calloutPerimeter;align=left;" vertex="1" parent="1">
          <mxGeometry x="-10" y="285.33" width="235" height="120" as="geometry" />
        </mxCell>
        <mxCell id="OXvMGoE_WdaTEObJl_Hk-1" value="" style="endArrow=open;endFill=1;endSize=12;html=1;rounded=0;exitX=0.463;exitY=1.036;exitDx=0;exitDy=0;exitPerimeter=0;entryX=0;entryY=0;entryDx=0;entryDy=0;" edge="1" parent="1" source="PrfPCNccRRWCTI0NGbYJ-21" target="OXvMGoE_WdaTEObJl_Hk-3">
          <mxGeometry width="160" relative="1" as="geometry">
            <mxPoint x="790" y="547" as="sourcePoint" />
            <mxPoint x="1128.260434116869" y="1130" as="targetPoint" />
          </mxGeometry>
        </mxCell>
        <mxCell id="OXvMGoE_WdaTEObJl_Hk-3" value="" style="image;html=1;image=img/lib/clip_art/networking/Ip_Camera_128x128.png" vertex="1" parent="1">
          <mxGeometry x="1177" y="1200" width="80" height="80" as="geometry" />
        </mxCell>
        <mxCell id="OXvMGoE_WdaTEObJl_Hk-4" value="&lt;div style=&quot;text-align: left;&quot;&gt;Xiaomi 360 Home Camera&lt;/div&gt;&lt;div style=&quot;text-align: left;&quot;&gt;&lt;span style=&quot;background-color: initial;&quot;&gt;Internal IP: 192.168.4.42&lt;/span&gt;&lt;/div&gt;&lt;div style=&quot;text-align: left;&quot;&gt;&lt;span style=&quot;background-color: initial;&quot;&gt;Connection: WiFi&lt;/span&gt;&lt;/div&gt;&lt;div style=&quot;text-align: left;&quot;&gt;&lt;span style=&quot;background-color: initial;&quot;&gt;MAC Address:&amp;nbsp;&lt;/span&gt;&lt;span style=&quot;background-color: initial;&quot;&gt;5c:ce:61&lt;/span&gt;&lt;/div&gt;&lt;div style=&quot;text-align: left;&quot;&gt;&lt;span style=&quot;background-color: initial;&quot;&gt;OS Version: Others (P&lt;/span&gt;&lt;span style=&quot;background-color: initial;&quot;&gt;roprietary)&lt;/span&gt;&lt;/div&gt;" style="shape=callout;whiteSpace=wrap;html=1;perimeter=calloutPerimeter;position2=0.29;" vertex="1" parent="1">
          <mxGeometry x="1190" y="1070" width="206" height="120" as="geometry" />
        </mxCell>
      </root>
    </mxGraphModel>
  </diagram>
</mxfile>
